<svg xmlns="http://www.w3.org/2000/svg" width="257" height="23" viewBox="0 0 257 23" fill="none">
  <path d="M0 16.8562V0.472602H4.25787V3.15068H4.41557C4.41557 3.15068 5.83486 0 9.46194 0C14.0352 0 15.2968 2.99315 15.2968 6.77397V16.8562H10.8812V7.71918C10.8812 4.88356 10.0927 3.62329 8.04265 3.62329C5.67716 3.62329 4.41557 5.0411 4.41557 8.34932V16.8562H0Z" fill="black"/>
  <path d="M32.6597 0.472602L26.8248 17.3288C25.5317 21.0781 23.8286 23 20.5169 23C18.9399 23 17.6783 22.5274 17.6783 22.5274V18.9041C17.6783 18.9041 18.6245 19.2192 19.7284 19.2192C21.3054 19.2192 21.9362 18.3685 22.567 16.8562L15.9436 0.472602H20.6746L24.6801 11.2795L27.9287 0.472602H32.6597Z" fill="black"/>
  <path d="M30.4507 16.8562L36.3486 0.472602H41.3319L47.2298 16.8562H42.4989L38.7141 5.23014L34.9293 16.8562H30.4507Z" fill="black"/>
  <path d="M48.3261 16.8562V0.472602H52.7417V6.4589H55.4226C59.9958 6.4589 62.519 8.50685 62.519 11.6575C62.519 14.8082 59.9958 16.8562 55.4226 16.8562H48.3261ZM54.7918 9.60959H52.7417V13.7055H54.7918C57.1572 13.7055 58.1034 13.0753 58.1034 11.6575C58.1034 10.2397 57.1572 9.60959 54.7918 9.60959Z" fill="black"/>
  <path d="M63.6303 8.66438C63.6303 3.87534 66.4689 0 71.8306 0C79.0848 0 79.5579 6.4589 79.5579 6.4589H75.1423C75.1423 6.4589 74.9846 3.30822 71.8306 3.30822C69.0236 3.30822 68.0459 5.70274 68.0459 8.66438C68.0459 11.626 69.0236 14.0205 71.8306 14.0205C74.9846 14.0205 75.1423 10.8699 75.1423 10.8699H79.5579C79.5579 10.8699 79.0848 17.3288 71.8306 17.3288C66.4689 17.3288 63.6303 13.4534 63.6303 8.66438Z" fill="black"/>
  <path d="M80.5164 14.6507C80.5164 13.2644 81.6518 12.1301 83.0396 12.1301C84.4273 12.1301 85.5628 13.2644 85.5628 14.6507C85.5628 16.037 84.4273 17.1712 83.0396 17.1712C81.6518 17.1712 80.5164 16.037 80.5164 14.6507Z" fill="black"/>
  <path d="M87.2888 16.8562V0.472602H91.7044V7.08904L97.5393 0.472602H102.743L96.5615 6.86849L103.059 16.8562H97.6654L93.5022 10.0192L91.7044 11.8781V16.8562H87.2888Z" fill="black"/>
  <path d="M104.322 22.5274V0.472602H108.579V2.67808H108.737C108.737 2.67808 110.156 0 113.783 0C118.514 0 120.88 4.09589 120.88 8.66438C120.88 13.2329 118.514 17.3288 113.783 17.3288C110.314 17.3288 108.895 15.1233 108.895 15.1233H108.737V22.5274H104.322ZM108.579 8.66438C108.579 11.626 109.841 14.0205 112.522 14.0205C115.203 14.0205 116.464 11.626 116.464 8.66438C116.464 5.70274 115.203 3.30822 112.522 3.30822C109.841 3.30822 108.579 5.70274 108.579 8.66438Z" fill="black"/>
  <path d="M126.728 5.5137H122.313C122.565 1.32329 125.94 0 129.725 0C133.667 0 136.821 1.41781 136.821 5.67123V16.8562H132.406V13.7055H132.248C132.248 13.7055 131.239 17.3288 127.044 17.3288C124.047 17.3288 121.84 15.9425 121.84 12.9178C121.84 9.86164 124.363 8.47534 127.075 7.78219C129.819 7.08904 132.406 6.86849 132.406 5.0411C132.406 3.74932 131.459 2.99315 129.725 2.99315C127.832 2.99315 126.791 3.74932 126.728 5.5137ZM132.406 8.60137C131.68 9.26301 130.198 9.60959 128.936 9.92466C127.517 10.2712 126.318 10.9959 126.318 12.4452C126.318 13.7055 127.201 14.4932 128.621 14.4932C131.617 14.4932 132.406 11.0274 132.406 8.60137Z" fill="black"/>
  <path d="M138.229 8.66438C138.229 3.87534 141.068 0 146.43 0C153.684 0 154.157 6.4589 154.157 6.4589H149.741C149.741 6.4589 149.584 3.30822 146.43 3.30822C143.623 3.30822 142.645 5.70274 142.645 8.66438C142.645 11.626 143.623 14.0205 146.43 14.0205C149.584 14.0205 149.741 10.8699 149.741 10.8699H154.157C154.157 10.8699 153.684 17.3288 146.43 17.3288C141.068 17.3288 138.229 13.4534 138.229 8.66438Z" fill="black"/>
  <path d="M166.14 16.8562V10.3973H159.989V16.8562H155.574V0.472602H159.989V6.93151H166.14V0.472602H170.555V16.8562H166.14Z" fill="black"/>
  <path d="M176.402 8.66438C176.402 11.626 177.538 14.0205 180.345 14.0205C183.152 14.0205 184.287 11.626 184.287 8.66438C184.287 5.70274 183.152 3.30822 180.345 3.30822C177.538 3.30822 176.402 5.70274 176.402 8.66438ZM171.987 8.66438C171.987 3.87534 174.951 0 180.345 0C185.738 0 188.703 3.87534 188.703 8.66438C188.703 13.4534 185.738 17.3288 180.345 17.3288C174.951 17.3288 171.987 13.4534 171.987 8.66438Z" fill="black"/>
  <path d="M204.49 0.472602V16.8562H200.074V10.8699H196.92L194.303 16.8562H189.351L192.694 10.0822C190.802 9.2 189.824 7.65616 189.824 5.67123C189.824 2.52055 192.347 0.472602 196.92 0.472602H204.49ZM197.551 7.71918H200.074V3.62329H197.551C195.186 3.62329 194.24 4.25343 194.24 5.67123C194.24 7.08904 195.186 7.71918 197.551 7.71918Z" fill="black"/>
  <path d="M206.056 22.5274V0.472602H210.314V2.67808H210.471C210.471 2.67808 211.891 0 215.518 0C220.249 0 222.614 4.09589 222.614 8.66438C222.614 13.2329 220.249 17.3288 215.518 17.3288C212.048 17.3288 210.629 15.1233 210.629 15.1233H210.471V22.5274H206.056ZM210.314 8.66438C210.314 11.626 211.575 14.0205 214.256 14.0205C216.937 14.0205 218.199 11.626 218.199 8.66438C218.199 5.70274 216.937 3.30822 214.256 3.30822C211.575 3.30822 210.314 5.70274 210.314 8.66438Z" fill="black"/>
  <path d="M223.886 8.66438C223.886 3.87534 226.724 0 232.086 0C239.34 0 239.813 6.4589 239.813 6.4589H235.398C235.398 6.4589 235.24 3.30822 232.086 3.30822C229.279 3.30822 228.301 5.70274 228.301 8.66438C228.301 11.626 229.279 14.0205 232.086 14.0205C235.24 14.0205 235.398 10.8699 235.398 10.8699H239.813C239.813 10.8699 239.34 17.3288 232.086 17.3288C226.724 17.3288 223.886 13.4534 223.886 8.66438Z" fill="black"/>
  <path d="M241.23 16.8562V0.472602H245.646V7.08904L251.481 0.472602H256.685L250.503 6.86849L257 16.8562H251.607L247.443 10.0192L245.646 11.8781V16.8562H241.23Z" fill="black"/>
</svg>